<svg width="56" height="63" viewBox="0 0 56 63" fill="none" xmlns="http://www.w3.org/2000/svg">
<path fill-rule="evenodd" clip-rule="evenodd" d="M52.1556 19.5147C52.7736 20.5929 54.1772 20.8549 55.0686 20.0671C55.9029 19.4921 56.1108 18.293 55.5415 17.456C50.3569 8.87997 45.0286 3.80183 34.5198 1.55639C23.4822 -0.830761 12.3164 2.33749 9.69988 14.6411C7.34835 25.5327 16.6593 32.2484 24.8151 38.1982C31.0834 42.7297 36.5911 46.7152 35.568 51.8026C34.4024 57.4222 27.9121 59.2195 22.9607 58.235C13.6155 56.3014 9.10495 51.5564 4.64418 44.087C4.10337 43.1435 2.93982 42.8318 2.02826 43.272C0.982409 43.7903 0.640179 45.0675 1.15247 46.1174C6.09701 54.7431 12.1657 60.0196 22.4629 62.2084C32.8172 64.1843 46.839 61.7813 49.4555 49.4777C51.75 38.799 42.8621 32.1967 34.7836 26.3816C28.1492 21.5239 21.9867 17.0207 23.2949 10.8689C24.2526 6.44841 30.2913 4.64418 34.0506 5.42332C43.1557 7.40673 47.9063 12.1019 52.1556 19.5147ZM45.5904 48.6702C44.3356 53.3533 40.7132 56.7176 36.2778 58.0388L36.0948 57.8757C37.9832 56.3284 38.8507 53.937 39.4781 51.5955C41.3319 44.6772 34.5347 40.004 27.3714 35.0046C19.4474 29.4591 11.1289 23.6938 13.6385 14.3275C14.7793 10.0701 17.9096 6.00364 22.1822 4.86696L22.2309 5.10817C20.7371 6.87533 19.7151 8.99709 19.1162 11.2322C17.0628 18.8955 24.5922 24.2212 32.1988 29.6817C40.017 35.1988 47.7294 40.6876 45.5904 48.6702Z" fill="#4E3E27"/>
</svg>
